<svg width="153" height="28" viewBox="0 0 153 28" fill="none" xmlns="http://www.w3.org/2000/svg">
<path d="M30 10.701H18.5386L15.0104 0L11.4614 10.701L0 10.6805L9.26931 17.302L5.72025 28.003L14.9896 21.3815L24.2589 28.003L20.7307 17.302L30 10.701Z" fill="#45C646"/>
<path d="M38.0259 2.25366H53.7507V5.04545H47.5592V20.7832H44.1656V5.04545H38L38.0259 2.25366ZM53.0772 7.36782H55.9786V9.96196H56.0304C56.1341 9.59137 56.3154 9.24548 56.5745 8.8996C56.8335 8.55371 57.1444 8.23253 57.533 7.96076C57.8957 7.66429 58.3102 7.44194 58.7765 7.269C59.2169 7.09605 59.6832 6.99723 60.1495 6.99723C60.5121 6.99723 60.7712 7.02193 60.9007 7.02193C61.0303 7.04664 61.1857 7.07135 61.3152 7.07135V9.91255C61.108 9.86314 60.8748 9.83843 60.6417 9.81372C60.4085 9.78901 60.2013 9.76431 59.9681 9.76431C59.45 9.76431 58.9578 9.86313 58.4915 10.0608C58.0252 10.2584 57.6366 10.5549 57.2739 10.9255C56.9371 11.3208 56.6522 11.7902 56.4449 12.3585C56.2377 12.9267 56.1341 13.5938 56.1341 14.3349V20.7091H53.0254L53.0772 7.36782ZM75.5634 20.7832H72.5065V18.9056H72.4547C72.0661 19.5973 71.4962 20.1162 70.7449 20.5362C69.9937 20.9562 69.2165 21.1538 68.4393 21.1538C66.6 21.1538 65.2529 20.7338 64.4239 19.8444C63.5949 18.9797 63.1804 17.6456 63.1804 15.8914V7.36782H66.2891V15.595C66.2891 16.7808 66.5223 17.6208 67.0145 18.0903C67.4808 18.5844 68.1544 18.8314 69.0093 18.8314C69.6569 18.8314 70.2009 18.7326 70.6413 18.535C71.0817 18.3373 71.4444 18.0903 71.7035 17.7691C71.9884 17.4479 72.1698 17.0526 72.2993 16.6079C72.4288 16.1632 72.4806 15.6691 72.4806 15.1502V7.36782H75.5893V20.7832H75.5634ZM80.8482 16.4844C80.9518 17.3491 81.2886 17.942 81.8844 18.3126C82.4803 18.6585 83.2056 18.8314 84.0346 18.8314C84.3196 18.8314 84.6564 18.8067 85.019 18.7573C85.3817 18.7079 85.7444 18.6338 86.0553 18.5103C86.3921 18.3867 86.6511 18.2138 86.8584 17.9667C87.0656 17.7197 87.1692 17.4232 87.1433 17.0526C87.1174 16.682 86.9879 16.3608 86.7029 16.1138C86.418 15.8667 86.0812 15.6938 85.6667 15.5208C85.2522 15.3726 84.76 15.2491 84.216 15.1502C83.6719 15.0514 83.1279 14.9279 82.558 14.8044C81.9881 14.6808 81.4181 14.5326 80.8741 14.3596C80.3301 14.1867 79.8638 13.9643 79.4234 13.6432C79.0089 13.3467 78.6462 12.9761 78.4131 12.5067C78.154 12.0373 78.0245 11.4937 78.0245 10.802C78.0245 10.0608 78.2058 9.46784 78.5944 8.97371C78.9571 8.47959 79.4493 8.0843 80.0192 7.78783C80.5891 7.49135 81.2368 7.269 81.9363 7.14547C82.6357 7.02193 83.3093 6.97252 83.931 6.97252C84.6564 6.97252 85.3558 7.04664 86.0035 7.19488C86.6511 7.34312 87.2729 7.56547 87.791 7.91136C88.335 8.23253 88.7754 8.67724 89.1122 9.19607C89.4748 9.7149 89.6821 10.3573 89.7857 11.0984H86.5475C86.3921 10.382 86.0553 9.91255 85.5372 9.66549C84.9931 9.41843 84.3973 9.2949 83.6978 9.2949C83.4906 9.2949 83.2056 9.3196 82.9207 9.34431C82.6098 9.39372 82.3507 9.44313 82.0658 9.54196C81.8067 9.64078 81.5736 9.78902 81.3922 9.96196C81.2109 10.1349 81.1073 10.382 81.1073 10.6784C81.1073 11.049 81.2368 11.3208 81.4959 11.5431C81.7549 11.7655 82.0917 11.9384 82.5321 12.1114C82.9466 12.2596 83.4388 12.3832 83.9828 12.482C84.5268 12.5808 85.0968 12.7043 85.6667 12.8279C86.2366 12.9514 86.7806 13.0996 87.3247 13.2726C87.8687 13.4455 88.3609 13.6679 88.7754 13.9891C89.1899 14.2855 89.5526 14.6561 89.8116 15.1008C90.0707 15.5455 90.2002 16.1138 90.2002 16.7561C90.2002 17.5467 90.0189 18.2138 89.6303 18.782C89.2417 19.3256 88.7495 19.795 88.1537 20.1409C87.5578 20.4868 86.8584 20.7338 86.133 20.9068C85.3817 21.055 84.6564 21.1538 83.931 21.1538C83.0502 21.1538 82.2212 21.055 81.4699 20.8573C80.7187 20.6597 80.0451 20.3632 79.5011 19.9926C78.9571 19.5973 78.5167 19.1279 78.2058 18.535C77.8949 17.9667 77.7136 17.275 77.6877 16.4597H80.8223V16.4844H80.8482ZM91.081 7.36782H93.4384V3.31602H96.5471V7.34311H99.345V9.54196H96.5471V16.7067C96.5471 17.0279 96.573 17.275 96.5989 17.522C96.6248 17.7444 96.7026 17.942 96.7803 18.0903C96.8839 18.2385 97.0393 18.362 97.2207 18.4362C97.4279 18.5103 97.687 18.5597 98.0497 18.5597C98.2569 18.5597 98.4901 18.5597 98.6973 18.535C98.9046 18.5103 99.1377 18.4856 99.345 18.4362V20.7338C99.0082 20.7832 98.6714 20.8079 98.3346 20.8326C97.9979 20.8821 97.687 20.8821 97.3243 20.8821C96.4953 20.8821 95.8477 20.8079 95.3555 20.6597C94.8633 20.5115 94.4747 20.2891 94.1897 20.0173C93.9047 19.7209 93.7234 19.375 93.6198 18.955C93.5162 18.535 93.4643 18.0161 93.4384 17.4726V9.56666H91.081V7.31841V7.36782ZM101.521 7.36782H104.448V9.19607H104.5C104.941 8.40547 105.536 7.86194 106.314 7.51606C107.091 7.17017 107.92 6.99723 108.852 6.99723C109.966 6.99723 110.925 7.17017 111.754 7.56547C112.583 7.93606 113.256 8.43018 113.8 9.09725C114.344 9.7396 114.759 10.5055 115.018 11.3702C115.277 12.2349 115.432 13.1737 115.432 14.1373C115.432 15.0514 115.303 15.9161 115.07 16.7561C114.811 17.5961 114.448 18.362 113.956 19.0044C113.464 19.6467 112.842 20.1656 112.065 20.5609C111.288 20.9562 110.407 21.1538 109.371 21.1538C108.93 21.1538 108.464 21.1044 108.023 21.0303C107.583 20.9562 107.143 20.8326 106.728 20.6597C106.314 20.4868 105.925 20.2644 105.588 19.9926C105.226 19.7209 104.941 19.3997 104.707 19.0538H104.656V25.7491H101.547V7.36782H101.521ZM112.376 14.0879C112.376 13.4949 112.298 12.902 112.117 12.3337C111.961 11.7655 111.702 11.2714 111.365 10.8267C111.028 10.382 110.614 10.0361 110.148 9.76431C109.655 9.49255 109.086 9.36901 108.464 9.36901C107.169 9.36901 106.184 9.78902 105.511 10.6537C104.863 11.5184 104.526 12.6796 104.526 14.1126C104.526 14.8044 104.604 15.422 104.785 15.9902C104.967 16.5585 105.2 17.0526 105.562 17.4726C105.899 17.8926 106.314 18.2138 106.806 18.4609C107.298 18.7079 107.842 18.8314 108.49 18.8314C109.215 18.8314 109.785 18.6832 110.277 18.4114C110.769 18.1397 111.158 17.7691 111.495 17.3491C111.806 16.9044 112.039 16.4103 112.168 15.842C112.298 15.2491 112.376 14.6808 112.376 14.0879ZM117.842 2.25366H120.95V5.04545H117.842V2.25366ZM117.842 7.36782H120.95V20.7832H117.842V7.36782ZM123.722 2.25366H126.831V20.7832H123.722V2.25366ZM136.313 21.1538C135.199 21.1538 134.188 20.9809 133.307 20.6103C132.427 20.2397 131.701 19.7703 131.08 19.1526C130.484 18.535 130.017 17.7691 129.707 16.9044C129.396 16.0397 129.214 15.0761 129.214 14.0632C129.214 13.0502 129.37 12.1114 129.707 11.2467C130.017 10.382 130.484 9.64078 131.08 8.99842C131.675 8.38077 132.427 7.88665 133.307 7.54076C134.188 7.19488 135.199 6.99723 136.313 6.99723C137.426 6.99723 138.437 7.17017 139.318 7.54076C140.198 7.88665 140.924 8.38077 141.546 8.99842C142.141 9.61607 142.608 10.382 142.919 11.2467C143.229 12.1114 143.411 13.0502 143.411 14.0632C143.411 15.1008 143.255 16.0397 142.919 16.9044C142.582 17.7691 142.141 18.5103 141.546 19.1526C140.95 19.7703 140.198 20.2644 139.318 20.6103C138.437 20.9562 137.452 21.1538 136.313 21.1538ZM136.313 18.8067C136.986 18.8067 137.608 18.6585 138.1 18.3867C138.618 18.115 139.007 17.7444 139.344 17.2997C139.68 16.855 139.913 16.3361 140.069 15.7926C140.224 15.2244 140.302 14.6561 140.302 14.0632C140.302 13.4949 140.224 12.9267 140.069 12.3585C139.913 11.7902 139.68 11.2961 139.344 10.8514C139.007 10.4067 138.592 10.0608 138.1 9.78902C137.582 9.51725 136.986 9.36901 136.313 9.36901C135.639 9.36901 135.017 9.51725 134.525 9.78902C134.007 10.0608 133.618 10.4314 133.282 10.8514C132.945 11.2961 132.712 11.7902 132.556 12.3585C132.401 12.9267 132.323 13.4949 132.323 14.0632C132.323 14.6561 132.401 15.2244 132.556 15.7926C132.712 16.3608 132.945 16.855 133.282 17.2997C133.618 17.7444 134.033 18.115 134.525 18.3867C135.043 18.6832 135.639 18.8067 136.313 18.8067ZM144.343 7.36782H146.701V3.31602H149.809V7.34311H152.607V9.54196H149.809V16.7067C149.809 17.0279 149.835 17.275 149.861 17.522C149.887 17.7444 149.965 17.942 150.043 18.0903C150.146 18.2385 150.302 18.362 150.483 18.4362C150.69 18.5103 150.949 18.5597 151.312 18.5597C151.519 18.5597 151.752 18.5597 151.96 18.535C152.167 18.5103 152.4 18.4856 152.607 18.4362V20.7338C152.271 20.7832 151.934 20.8079 151.597 20.8326C151.26 20.8821 150.949 20.8821 150.587 20.8821C149.758 20.8821 149.11 20.8079 148.618 20.6597C148.126 20.5115 147.737 20.2891 147.452 20.0173C147.167 19.7209 146.986 19.375 146.882 18.955C146.779 18.535 146.727 18.0161 146.701 17.4726V9.56666H144.343V7.31841V7.36782Z" fill="#0F172A"/>
</svg>
