<svg width="117" height="16" viewBox="0 0 117 16" fill="none" xmlns="http://www.w3.org/2000/svg">
<path d="M7.40364 1.2293C7.70562 0.258854 9.02046 0.258855 9.32243 1.2293L10.4014 4.69663C10.5364 5.13063 10.9238 5.42446 11.3608 5.42446H14.8523C15.8296 5.42446 16.2359 6.73018 15.4453 7.32995L12.6205 9.47288C12.267 9.7411 12.119 10.2165 12.2541 10.6505L13.333 14.1179C13.635 15.0883 12.5713 15.8953 11.7807 15.2955L8.95598 13.1526C8.60242 12.8844 8.12366 12.8844 7.7701 13.1526L4.94537 15.2955C4.15478 15.8953 3.09106 15.0883 3.39303 14.1179L4.47198 10.6505C4.60703 10.2165 4.45909 9.7411 4.10553 9.47288L1.2808 7.32995C0.490214 6.73018 0.896522 5.42446 1.87374 5.42446H5.36529C5.80232 5.42446 6.18964 5.13063 6.32469 4.69663L7.40364 1.2293Z" fill="#FABB18"/>
<path d="M32.624 1.2293C32.926 0.258854 34.2408 0.258855 34.5428 1.2293L35.6217 4.69663C35.7568 5.13063 36.1441 5.42446 36.5811 5.42446H40.0727C41.0499 5.42446 41.4562 6.73018 40.6656 7.32995L37.8409 9.47288C37.4873 9.7411 37.3394 10.2165 37.4744 10.6505L38.5534 14.1179C38.8554 15.0883 37.7916 15.8953 37.001 15.2955L34.1763 13.1526C33.8228 12.8844 33.344 12.8844 32.9904 13.1526L30.1657 15.2955C29.3751 15.8953 28.3114 15.0883 28.6134 14.1179L29.6923 10.6505C29.8274 10.2165 29.6794 9.7411 29.3259 9.47288L26.5011 7.32995C25.7106 6.73018 26.1169 5.42446 27.0941 5.42446H30.5856C31.0227 5.42446 31.41 5.13063 31.545 4.69663L32.624 1.2293Z" fill="#FABB18"/>
<path d="M57.8442 1.2293C58.1462 0.258854 59.461 0.258855 59.763 1.2293L60.8419 4.69663C60.977 5.13063 61.3643 5.42446 61.8013 5.42446H65.2929C66.2701 5.42446 66.6764 6.73018 65.8858 7.32995L63.0611 9.47288C62.7075 9.7411 62.5596 10.2165 62.6946 10.6505L63.7736 14.1179C64.0756 15.0883 63.0118 15.8953 62.2213 15.2955L59.3965 13.1526C59.043 12.8844 58.5642 12.8844 58.2106 13.1526L55.3859 15.2955C54.5953 15.8953 53.5316 15.0883 53.8336 14.1179L54.9125 10.6505C55.0476 10.2165 54.8996 9.7411 54.5461 9.47288L51.7214 7.32995C50.9308 6.73018 51.3371 5.42446 52.3143 5.42446H55.8058C56.2429 5.42446 56.6302 5.13063 56.7652 4.69663L57.8442 1.2293Z" fill="#FABB18"/>
<path d="M83.0645 1.2293C83.3665 0.258854 84.6813 0.258855 84.9833 1.2293L86.0623 4.69663C86.1973 5.13063 86.5846 5.42446 87.0217 5.42446H90.5132C91.4904 5.42446 91.8967 6.73018 91.1062 7.32995L88.2814 9.47288C87.9279 9.7411 87.7799 10.2165 87.915 10.6505L88.9939 14.1179C89.2959 15.0883 88.2322 15.8953 87.4416 15.2955L84.6169 13.1526C84.2633 12.8844 83.7845 12.8844 83.431 13.1526L80.6063 15.2955C79.8157 15.8953 78.7519 15.0883 79.0539 14.1179L80.1329 10.6505C80.2679 10.2165 80.12 9.7411 79.7664 9.47288L76.9417 7.32995C76.1511 6.73018 76.5574 5.42446 77.5346 5.42446H81.0262C81.4632 5.42446 81.8505 5.13063 81.9856 4.69663L83.0645 1.2293Z" fill="#FABB18"/>
<path d="M108.285 1.2293C108.587 0.258854 109.902 0.258855 110.204 1.2293L111.282 4.69663C111.418 5.13063 111.805 5.42446 112.242 5.42446H115.733C116.711 5.42446 117.117 6.73018 116.326 7.32995L113.502 9.47288C113.148 9.7411 113 10.2165 113.135 10.6505L114.214 14.1179C114.516 15.0883 113.452 15.8953 112.662 15.2955L109.837 13.1526C109.484 12.8844 109.005 12.8844 108.651 13.1526L105.826 15.2955C105.036 15.8953 103.972 15.0883 104.274 14.1179L105.353 10.6505C105.488 10.2165 105.34 9.7411 104.987 9.47288L102.162 7.32995C101.371 6.73018 101.778 5.42446 102.755 5.42446H106.246C106.683 5.42446 107.071 5.13063 107.206 4.69663L108.285 1.2293Z" fill="#FABB18"/>
</svg>
