<svg width="60" height="61" viewBox="0 0 60 61" fill="none" xmlns="http://www.w3.org/2000/svg">
<circle cx="30" cy="30.5" r="30" fill="#008EFF"/>
<path d="M16.6667 29.1667C16.6667 24.7669 16.6667 22.567 18.0335 21.2002C19.4003 19.8334 21.6002 19.8334 26 19.8334H27.3333C31.7331 19.8334 33.9329 19.8334 35.2999 21.2002C36.6667 22.567 36.6667 24.7669 36.6667 29.1667V31.8334C36.6667 36.2331 36.6667 38.433 35.2999 39.7999C33.9329 41.1667 31.7331 41.1667 27.3333 41.1667H26C21.6002 41.1667 19.4003 41.1667 18.0335 39.7999C16.6667 38.433 16.6667 36.2331 16.6667 31.8334V29.1667Z" stroke="white" stroke-width="2"/>
<path d="M36.6667 26.3744L36.8345 26.2359C39.6556 23.9083 41.0661 22.7444 42.1997 23.3064C43.3333 23.8683 43.3333 25.7314 43.3333 29.4574V31.5425C43.3333 35.2686 43.3333 37.1316 42.1997 37.6936C41.0661 38.2554 39.6556 37.0917 36.8345 34.764L36.6667 34.6254" stroke="white" stroke-width="2" stroke-linecap="round"/>
<path d="M29.3333 29.1666C30.4379 29.1666 31.3333 28.2712 31.3333 27.1666C31.3333 26.0621 30.4379 25.1666 29.3333 25.1666C28.2288 25.1666 27.3333 26.0621 27.3333 27.1666C27.3333 28.2712 28.2288 29.1666 29.3333 29.1666Z" stroke="white" stroke-width="2"/>
</svg>
