<svg width="60" height="61" viewBox="0 0 60 61" fill="none" xmlns="http://www.w3.org/2000/svg">
<circle cx="30" cy="30.5" r="30" fill="#45C646"/>
<path d="M30 42.5C30.3723 42.5 30.7184 42.3304 31.4105 41.9912L36.9739 39.2649C39.4357 38.0584 40.6667 37.4552 40.6667 36.5V24.5M30 42.5C29.6277 42.5 29.2816 42.3304 28.5895 41.9912L23.0261 39.2649C20.5642 38.0584 19.3333 37.4552 19.3333 36.5V24.5M30 42.5V30.5" stroke="white" stroke-width="2" stroke-linecap="round" stroke-linejoin="round"/>
<path d="M28.5895 19.0088C29.2816 18.6696 29.6277 18.5 30 18.5C30.3723 18.5 30.7184 18.6696 31.4105 19.0088L36.9739 21.7351C39.4357 22.9415 40.6667 23.5448 40.6667 24.5C40.6667 25.4552 39.4357 26.0585 36.9739 27.2649L31.4105 29.9912C30.7184 30.3304 30.3723 30.5 30 30.5C29.6277 30.5 29.2816 30.3304 28.5895 29.9912L23.0261 27.2649C20.5642 26.0585 19.3333 25.4552 19.3333 24.5C19.3333 23.5448 20.5642 22.9415 23.0261 21.7351L28.5895 19.0088Z" stroke="white" stroke-width="2" stroke-linejoin="round"/>
</svg>
