<svg width="60" height="61" viewBox="0 0 60 61" fill="none" xmlns="http://www.w3.org/2000/svg">
<circle cx="30" cy="30.5" r="30" fill="#F23936"/>
<path d="M34.2339 43.8333V42.5156V42.4877C34.2407 41.7609 34.8365 41.1734 35.5735 41.1666L35.6735 41.1665C37.5823 41.1513 39.2221 39.8256 39.6116 37.9826L39.6257 37.9134L40.318 34.5L41.5731 33.8812C42.2448 33.55 42.5805 33.3844 42.6532 33.0808C42.7259 32.7772 42.5007 32.4809 42.0501 31.8885L39.5068 28.5444C39.2537 28.2116 39.1272 28.0452 39.0593 27.8692C38.9916 27.6931 38.9707 27.4436 38.9291 26.9447C38.4711 21.4694 33.8199 17.1666 28.1497 17.1666C22.176 17.1666 17.3333 21.9423 17.3333 27.8333C17.3333 31.4996 19.2089 34.7337 22.0655 36.6537M22.0655 36.6537V43.8333M22.0655 36.6537C22.8919 37.2092 23.8005 37.6546 24.7696 37.9688" stroke="white" stroke-width="2" stroke-linecap="round" stroke-linejoin="round"/>
<path d="M32.6667 26.5L33.8932 27.5572C34.4088 28.0016 34.6667 28.2239 34.6667 28.5C34.6667 28.7761 34.4088 28.9984 33.8932 29.4428L32.6667 30.5" stroke="white" stroke-width="2" stroke-linecap="round" stroke-linejoin="round"/>
<path d="M23.3333 26.5L22.1068 27.5572C21.5912 28.0016 21.3333 28.2239 21.3333 28.5C21.3333 28.7761 21.5911 28.9984 22.1068 29.4428L23.3333 30.5" stroke="white" stroke-width="2" stroke-linecap="round" stroke-linejoin="round"/>
<path d="M29.3333 25.1666L26.6667 31.8333" stroke="white" stroke-width="2" stroke-linecap="round" stroke-linejoin="round"/>
</svg>
