<svg width="120" height="39" viewBox="0 0 120 39" fill="none" xmlns="http://www.w3.org/2000/svg">
<path d="M37.9221 19.5C37.9221 29.9934 29.4329 38.5 18.961 38.5C8.48915 38.5 0 29.9934 0 19.5C0 9.00659 8.48915 0.5 18.961 0.5C29.4329 0.5 37.9221 9.00659 37.9221 19.5Z" fill="#473BF0"/>
<path d="M31.2562 18.5443C31.2906 18.8543 31.3078 19.1642 31.3078 19.4742V31.8721H27.5445C26.4791 31.8721 25.8432 31.2178 25.637 29.9091C23.6437 31.2178 21.4269 31.8721 18.9868 31.8721C15.55 31.8721 12.6287 30.6667 10.223 28.256C7.9203 25.9142 6.71742 22.9869 6.61432 19.4742C6.71742 15.9959 7.9203 13.103 10.223 10.7956C12.56 8.4538 15.4641 7.23122 18.9353 7.12791C22.4408 7.19678 25.3621 8.40214 27.6991 10.744C29.7956 12.8447 30.9813 15.4448 31.2562 18.5443Z" fill="white"/>
<path d="M22.3451 22.9664C21.4678 23.8455 20.3648 24.3102 19.0362 24.3605C17.6325 24.3605 16.4543 23.8958 15.5018 22.9664C14.5743 22.0119 14.1105 20.8564 14.1105 19.5C14.1105 18.1687 14.5743 17.0258 15.5018 16.0713C16.4543 15.1168 17.6074 14.6395 18.961 14.6395C20.2896 14.6395 21.4302 15.1168 22.3827 16.0713C23.3102 17.0258 23.7865 18.2064 23.8115 19.613C23.7363 20.9443 23.2475 22.0621 22.3451 22.9664Z" fill="#473BF0"/>
<path d="M54.0601 24.117H49.0478L48.286 26.3813H44.1559L49.3085 12.5H53.8395L58.9721 26.3813H54.8219L54.0601 24.117ZM53.0777 21.1635L51.554 16.6742L50.0503 21.1635H53.0777Z" fill="#0F172A"/>
<path d="M64.5433 23.2506H70.4177V26.3813H60.1326V23.4475L65.9468 15.611H60.1326V12.5H70.4177V15.4338L64.5433 23.2506Z" fill="#0F172A"/>
<path d="M81.4904 24.117H76.4781L75.7162 26.3813H71.5862L76.7387 12.5H81.2698L86.4024 26.3813H82.2522L81.4904 24.117ZM80.508 21.1635L78.9842 16.6742L77.4806 21.1635H80.508Z" fill="#0F172A"/>
<path d="M91.6127 12.5V26.3813H87.6831V12.5H91.6127Z" fill="#0F172A"/>
<path d="M98.141 23.2506H104.015V26.3813H93.7302V23.4475L99.5444 15.611H93.7302V12.5H104.015V15.4338L98.141 23.2506Z" fill="#0F172A"/>
<path d="M115.088 24.117H110.076L109.314 26.3813H105.184L110.336 12.5H114.868L120 26.3813H115.85L115.088 24.117ZM114.106 21.1635L112.582 16.6742L111.078 21.1635H114.106Z" fill="#0F172A"/>
</svg>
